<?xml version="1.0" encoding="utf-8"?>
<!-- Generator: Adobe Illustrator 22.0.1, SVG Export Plug-In . SVG Version: 6.00 Build 0)  -->
<svg version="1.1" id="Layer_1" xmlns="http://www.w3.org/2000/svg" xmlns:xlink="http://www.w3.org/1999/xlink" x="0px" y="0px"
	 viewBox="0 0 792 612" style="enable-background:new 0 0 792 612;" xml:space="preserve">
<style type="text/css">
	.st0{fill:#49494B;}
	.st1{fill:#EF5088;}
	.st2{fill:#EA595C;}
	.st3{fill:#F283AB;}
	.st4{fill:#AE7598;}
	.st5{fill:#B4428A;}
	.st6{fill:#FBB855;}
	.st7{fill:#F07924;}
	.st8{fill:#FCD66C;}
	.st9{fill:#55C9F0;}
	.st10{fill:#8FD0DB;}
	.st11{fill:#3F90CE;}
	.st12{fill:#269BAD;}
	.st13{fill:#23AA9F;}
</style>
<g>
	<g>
		<path class="st0" d="M421.1,282.7h-24.3l-4.5,14.5h-14.9l24.9-69.6h14.6l24.2,69.6h-15.2L421.1,282.7z M409.1,244.4H409l-8.8,27
			H418L409.1,244.4z"/>
		<path class="st0" d="M475,263.6c-0.1-2-1-3.5-2.5-4.5c-1.5-1-3.6-1.5-6.2-1.5c-1.8,0-3.4,0.4-4.9,1.1c-1.5,0.7-2.2,1.8-2.2,3.2
			c0,1.7,0.7,3,2.2,3.7c1.5,0.8,3.3,1.4,5.5,1.8c2.2,0.4,4.5,0.9,7.1,1.3c2.5,0.4,4.9,1.1,7.1,2c2.2,1,4,2.3,5.5,4.1
			c1.5,1.8,2.2,4.3,2.2,7.5c0,1.6-0.3,3.3-1,5.2c-0.6,1.9-1.8,3.6-3.4,5.3c-1.6,1.6-3.9,3-6.8,4.1c-2.9,1.1-6.5,1.6-11,1.6
			c-2.9,0-5.5-0.3-8-0.8c-2.5-0.5-4.6-1.4-6.4-2.6c-1.8-1.2-3.3-2.8-4.4-4.8c-1.2-1.9-1.9-4.3-2.1-7.2l13.1-0.4
			c0.1,2.4,1.1,4,2.8,4.8c1.7,0.8,3.6,1.2,5.6,1.2c0.8,0,1.7-0.1,2.7-0.2c1-0.1,1.8-0.4,2.6-0.8c0.8-0.4,1.4-0.9,1.9-1.5
			c0.5-0.6,0.8-1.5,0.8-2.5c0-1.6-0.7-2.8-2.1-3.5c-1.4-0.7-3.2-1.3-5.3-1.7c-2.1-0.4-4.4-0.8-6.9-1.2c-2.5-0.4-4.7-1.1-6.9-2.1
			c-2.1-1-3.9-2.5-5.3-4.3c-1.4-1.8-2.1-4.4-2.1-7.7c0-1.8,0.4-3.7,1.1-5.5c0.8-1.8,1.9-3.5,3.5-5c1.6-1.5,3.6-2.7,6.1-3.6
			c2.5-0.9,5.6-1.4,9.1-1.4c6.2,0,11.2,1.2,15,3.7c3.8,2.5,5.9,6.3,6.3,11.6L475,263.6z"/>
		<path class="st0" d="M513,275.3h-0.1v21.9h-13.3V225h13.3v43.1h0.1l15.1-18.9h15.1l-18.8,21.4l20.5,26.7h-16.1L513,275.3z"/>
		<path class="st0" d="M339.1,339.4h-10.2v-6.1h10.2V330c0-2.5,0.3-5,0.8-7.5c0.5-2.5,1.4-4.7,2.6-6.7c1.2-2,2.8-3.6,4.9-4.8
			c2-1.2,4.6-1.8,7.7-1.8c1,0,2,0.1,3,0.2c1.1,0.1,2.1,0.3,3.2,0.6v7.1c-0.8-0.3-1.8-0.6-2.8-0.7c-1.1-0.1-2.2-0.2-3.3-0.2
			c-1.8,0-3.2,0.4-4.3,1.2c-1.1,0.8-1.9,1.9-2.6,3.2c-0.6,1.3-1,2.8-1.2,4.6s-0.3,3.5-0.3,5.2v2.8h13.9v6.1h-13.9v41.9h-7.6V339.4z"
			/>
		<path class="st0" d="M412.1,357.3c0,3.2-0.5,6.3-1.6,9.4c-1.1,3-2.7,5.7-4.8,8.1c-2.1,2.4-4.7,4.3-7.8,5.7
			c-3.1,1.4-6.7,2.1-10.7,2.1c-4.3,0-8-0.7-11.1-2.1c-3.1-1.4-5.7-3.3-7.7-5.7c-2-2.4-3.5-5.1-4.4-8.1c-1-3-1.4-6.2-1.4-9.4
			c0-3.1,0.5-6.2,1.6-9.3c1.1-3.1,2.6-5.8,4.8-8.1c2.1-2.4,4.7-4.3,7.8-5.7c3.1-1.5,6.6-2.2,10.6-2.2c4.4,0,8.1,0.7,11.3,2.2
			c3.1,1.5,5.7,3.4,7.7,5.7c2,2.4,3.5,5.1,4.4,8.1C411.6,351,412.1,354.2,412.1,357.3z M370.6,357.3c0,2.7,0.4,5.2,1.2,7.5
			c0.8,2.3,1.9,4.2,3.3,5.9s3.2,2.9,5.2,3.8c2,0.9,4.4,1.4,7,1.4s4.9-0.5,7-1.4s3.8-2.2,5.3-3.8c1.4-1.6,2.5-3.6,3.3-5.9
			c0.8-2.3,1.2-4.8,1.2-7.5c0-2.7-0.4-5.1-1.2-7.4c-0.8-2.3-1.9-4.2-3.3-5.9c-1.4-1.6-3.2-2.9-5.3-3.8s-4.4-1.4-7-1.4
			s-4.9,0.5-7,1.4c-2,0.9-3.8,2.2-5.2,3.8c-1.4,1.6-2.5,3.6-3.3,5.9C371,352.2,370.6,354.6,370.6,357.3z"/>
		<path class="st0" d="M421.8,333.2h7.4v11.7h0.2c0.5-1.2,1.3-2.6,2.4-4c1.1-1.4,2.4-2.8,3.9-4c1.5-1.2,3.2-2.3,5.1-3.1
			c1.9-0.8,3.8-1.2,5.9-1.2h2.7v7.3h-2.5c-2.5,0-4.7,0.5-6.9,1.5c-2.1,1-4,2.4-5.5,4.1c-1.6,1.7-2.8,3.8-3.7,6.2
			c-0.9,2.4-1.4,5-1.4,7.9v21.8h-7.6V333.2z"/>
		<path class="st0" d="M536.4,332.1h-0.2l-20.3,49.2h-7.8L488.3,333h-0.2v48.3h-13.3v-69.6h17.7l20,50l19.5-50h17.6v69.6h-13.3
			V332.1z"/>
		<path class="st0" d="M615.2,357.2c0,3.2-0.6,6.3-1.7,9.4c-1.1,3.1-2.8,5.8-5.1,8.1s-5,4.2-8.3,5.7c-3.3,1.4-7.1,2.1-11.5,2.1
			c-4.7,0-8.7-0.7-12.1-2.1c-3.3-1.4-6.1-3.3-8.2-5.7c-2.1-2.4-3.7-5.1-4.7-8.1c-1-3.1-1.5-6.2-1.5-9.4c0-3.1,0.6-6.2,1.7-9.3
			c1.1-3,2.8-5.7,5.1-8.1c2.3-2.4,5-4.3,8.3-5.7c3.3-1.4,7.1-2.1,11.4-2.1c4.6,0,8.6,0.7,12,2.1c3.4,1.4,6.1,3.3,8.3,5.7
			c2.1,2.4,3.7,5.1,4.8,8.1C614.7,351,615.2,354,615.2,357.2z M575.7,357.3c0,4.3,1,7.8,3.1,10.6c2.1,2.8,5.4,4.1,9.8,4.1
			c4.5,0,7.7-1.4,9.8-4.1s3.1-6.3,3.1-10.6s-1-7.8-3.1-10.6c-2.1-2.8-5.3-4.2-9.8-4.2c-4.4,0-7.7,1.4-9.8,4.2
			C576.7,349.4,575.7,353,575.7,357.3z"/>
		<path class="st0" d="M627.2,333.2h13v12.2h0.2c0.5-1.6,1.2-3.3,2.2-4.9c1-1.6,2.1-3.1,3.5-4.3c1.3-1.3,2.8-2.3,4.4-3.1
			c1.6-0.8,3.4-1.2,5.2-1.2h1.2V345h-1.3c-2,0-4,0.4-5.8,1.1c-1.8,0.8-3.4,1.8-4.8,3.1c-1.4,1.3-2.4,2.8-3.2,4.6
			c-0.8,1.8-1.2,3.7-1.2,5.8v21.7h-13.5V333.2z"/>
		<path class="st0" d="M675,360.8c0,1.4,0.3,2.8,0.8,4.2c0.5,1.4,1.4,2.6,2.5,3.7c1.1,1.1,2.5,1.9,4.1,2.6c1.7,0.6,3.6,1,5.8,1
			c5,0,8.5-1.8,10.2-5.5l12.4,3c-1.9,4.4-4.8,7.7-8.5,9.8c-3.8,2.1-8.7,3.1-14.7,3.1c-4.2,0-7.9-0.6-11.1-1.8
			c-3.2-1.2-6-2.9-8.2-5.1c-2.2-2.2-4-4.8-5.2-7.9c-1.2-3.1-1.8-6.6-1.8-10.4c0-3.9,0.6-7.4,1.8-10.5c1.2-3.1,3-5.8,5.3-8
			c2.3-2.2,5-3.9,8.2-5.1c3.2-1.2,6.8-1.8,10.6-1.8c8.1,0,14.2,2.2,18.4,6.6c4.1,4.4,6.2,10.6,6.2,18.4v3.8H675z M698.1,352.2
			c0-1.2-0.2-2.5-0.5-3.7c-0.3-1.3-0.9-2.4-1.7-3.4c-0.8-1-1.8-1.9-3.2-2.6c-1.3-0.7-3-1-5.1-1c-2.3,0-4.3,0.4-5.8,1.1
			c-1.6,0.7-2.8,1.6-3.8,2.7c-1,1.1-1.7,2.2-2.1,3.5c-0.5,1.3-0.8,2.4-0.9,3.5H698.1z"/>
		<path class="st0" d="M386.9,455c3.8,0,6.4-1,7.9-3c1.4-2,2.1-5.2,2.1-9.6v-34.1h-11.7v-12.4h25.6v46.5c0,4.6-0.6,8.5-1.7,11.6
			c-1.1,3.1-2.7,5.6-4.7,7.5c-2,1.9-4.4,3.3-7.2,4c-2.8,0.8-5.9,1.2-9.2,1.2c-1,0-2.1-0.1-3.4-0.2c-1.2-0.1-2.5-0.3-3.7-0.5v-11.7
			c1,0.1,1.9,0.3,2.9,0.4C385,454.9,386,455,386.9,455z"/>
		<path class="st0" d="M453.9,459.1h-0.2c-1.4,2.5-3.3,4.4-5.7,5.7s-5.6,1.9-9.4,1.9c-1.9,0-3.9-0.3-5.8-0.8c-2-0.5-3.8-1.3-5.4-2.5
			c-1.6-1.2-2.9-2.7-3.9-4.6c-1-1.9-1.5-4.3-1.5-7.1c0-3.1,0.6-5.6,1.9-7.5c1.3-1.9,3-3.5,5.3-4.6c2.3-1.1,5-1.9,8.3-2.4
			c3.2-0.4,6.8-0.7,10.8-0.7h5.2v-1.9c0-2.9-0.6-5.1-1.9-6.6c-1.3-1.5-3.4-2.3-6.4-2.3c-2.9,0-5,0.6-6.4,1.7
			c-1.4,1.2-2.2,2.6-2.3,4.4h-12.9c0.1-2.1,0.5-4.1,1.4-6c0.9-1.9,2.3-3.6,4.1-5.1c1.8-1.5,4.2-2.6,7-3.5c2.8-0.9,6.1-1.3,10-1.3
			c4,0,7.2,0.4,9.9,1.3c2.6,0.9,4.7,2.1,6.3,3.7c1.6,1.6,2.7,3.5,3.3,5.8c0.6,2.3,0.9,4.8,0.9,7.5V458c0,1.3,0.1,2.6,0.2,4
			c0.1,1.4,0.3,2.5,0.5,3.4h-12.2L453.9,459.1z M453.4,444.4h-3.8c-1.8,0-3.5,0.1-5.2,0.3c-1.7,0.2-3.2,0.5-4.6,1
			c-1.4,0.5-2.5,1.2-3.3,2c-0.8,0.9-1.2,2-1.2,3.5c0,2.3,0.7,3.9,2.1,4.8c1.4,0.9,3.3,1.3,5.5,1.3c1.3,0,2.6-0.2,3.8-0.6
			c1.2-0.4,2.3-1,3.3-1.8c1-0.8,1.8-1.9,2.4-3.1c0.6-1.3,0.9-2.8,0.9-4.7V444.4z"/>
		<path class="st0" d="M515.2,433.3c-0.7-1.7-1.8-3.3-3.4-4.7c-1.6-1.4-3.8-2.1-6.7-2.1c-2.3,0-4.3,0.4-5.8,1.3
			c-1.6,0.9-2.8,2.1-3.8,3.5c-1,1.5-1.7,3.2-2.1,5.1c-0.4,1.9-0.7,3.9-0.7,6c0,3.9,1.1,7.1,3.2,9.6c2.1,2.5,5.1,3.8,9.1,3.8
			c2.7,0,4.8-0.6,6.4-1.7c1.6-1.2,2.9-2.8,3.9-4.9l12.1,4.6c-1.8,3.8-4.7,6.8-8.4,9.2s-8.6,3.6-14.4,3.6c-4.4,0-8.3-0.6-11.6-1.9
			c-3.3-1.3-6-3-8.1-5.2c-2.1-2.2-3.7-4.8-4.8-7.8c-1-3-1.5-6.4-1.5-10c0-3.7,0.6-7.1,1.8-10.3s3-5.9,5.3-8.2c2.3-2.3,5-4.1,8.2-5.4
			c3.2-1.3,6.8-1.9,10.7-1.9c6.3,0,11.3,1.2,14.9,3.5c3.6,2.3,6.2,5.4,7.9,9.2L515.2,433.3z"/>
		<path class="st0" d="M550.3,443.5h-0.1v21.9h-13.3v-72.2h13.3v43.1h0.1l15.1-18.9h15.1l-18.8,21.4l20.5,26.7h-16.1L550.3,443.5z"
			/>
		<path class="st0" d="M614.6,431.8c-0.1-2-1-3.5-2.5-4.5c-1.5-1-3.6-1.5-6.2-1.5c-1.8,0-3.4,0.4-4.9,1.1c-1.5,0.7-2.2,1.8-2.2,3.2
			c0,1.7,0.7,3,2.2,3.7c1.5,0.8,3.3,1.4,5.5,1.8c2.2,0.4,4.5,0.9,7.1,1.3c2.5,0.4,4.9,1.1,7.1,2c2.2,1,4,2.3,5.5,4.1
			c1.5,1.8,2.2,4.3,2.2,7.5c0,1.6-0.3,3.3-1,5.2c-0.6,1.9-1.8,3.6-3.4,5.3c-1.6,1.6-3.9,3-6.8,4.1c-2.9,1.1-6.5,1.6-11,1.6
			c-2.9,0-5.5-0.3-8-0.8c-2.5-0.5-4.6-1.4-6.4-2.6c-1.8-1.2-3.3-2.8-4.4-4.8c-1.2-1.9-1.9-4.3-2.1-7.2l13.1-0.4
			c0.1,2.4,1.1,4,2.8,4.8c1.7,0.8,3.6,1.2,5.6,1.2c0.8,0,1.7-0.1,2.7-0.2c1-0.1,1.8-0.4,2.6-0.8c0.8-0.4,1.4-0.9,1.9-1.5
			c0.5-0.6,0.8-1.5,0.8-2.5c0-1.6-0.7-2.8-2.1-3.5c-1.4-0.7-3.2-1.3-5.3-1.7c-2.1-0.4-4.4-0.8-6.9-1.2c-2.5-0.4-4.7-1.1-6.9-2.1
			c-2.1-1-3.9-2.5-5.3-4.3c-1.4-1.8-2.1-4.4-2.1-7.7c0-1.8,0.4-3.7,1.1-5.5c0.8-1.8,1.9-3.5,3.5-5c1.6-1.5,3.6-2.7,6.1-3.6
			c2.5-0.9,5.6-1.4,9.1-1.4c6.2,0,11.2,1.2,15,3.7c3.8,2.5,5.9,6.3,6.3,11.6L614.6,431.8z"/>
		<path class="st0" d="M690.2,441.3c0,3.2-0.6,6.3-1.7,9.4c-1.1,3.1-2.8,5.8-5.1,8.1s-5,4.2-8.3,5.7c-3.3,1.4-7.1,2.1-11.5,2.1
			c-4.7,0-8.7-0.7-12.1-2.1c-3.3-1.4-6.1-3.3-8.2-5.7c-2.1-2.4-3.7-5.1-4.7-8.1c-1-3.1-1.5-6.2-1.5-9.4c0-3.1,0.6-6.2,1.7-9.3
			c1.1-3,2.8-5.7,5.1-8.1c2.3-2.4,5-4.3,8.3-5.7c3.3-1.4,7.1-2.1,11.4-2.1c4.6,0,8.6,0.7,12,2.1c3.4,1.4,6.1,3.3,8.3,5.7
			c2.1,2.4,3.7,5.1,4.8,8.1C689.7,435.1,690.2,438.2,690.2,441.3z M650.6,441.4c0,4.3,1,7.8,3.1,10.6c2.1,2.8,5.4,4.1,9.8,4.1
			c4.5,0,7.7-1.4,9.8-4.1s3.1-6.3,3.1-10.6s-1-7.8-3.1-10.6c-2.1-2.8-5.3-4.2-9.8-4.2c-4.4,0-7.7,1.4-9.8,4.2
			C651.6,433.6,650.6,437.1,650.6,441.4z"/>
		<path class="st0" d="M733.2,436.2c0-1.7-0.2-3.2-0.7-4.3c-0.5-1.2-1.1-2.1-1.9-2.9s-1.7-1.2-2.7-1.5s-2.1-0.5-3.2-0.5
			c-2.6,0-4.9,1-6.7,3.1c-1.8,2.1-2.7,4.8-2.7,8v27.3h-13.5v-48.1h12.9v6.2h0.2c2-2.9,4.3-4.9,6.9-6c2.6-1.1,5.2-1.6,8-1.6
			c2.9,0,5.4,0.4,7.5,1.3c2.1,0.9,3.9,2.1,5.3,3.6c1.4,1.5,2.4,3.3,3.1,5.3c0.7,2,1,4.2,1,6.5v32.6h-13.5V436.2z"/>
	</g>
	<path class="st1" d="M183.6,121l0.8,27.2c1,0,2.1,0,3.1,0c37.9,0,73.8,14.1,101.7,40l0,0l0,0l18.7-19.8
		C274,136.8,230,120.1,183.6,121z"/>
	<path class="st2" d="M289.2,191.6l-18.7,19.8c22.4,21.6,35.3,50.5,36.5,81.6l27.2-0.8C332.9,253.9,316.9,218.2,289.2,191.6z"/>
	<path class="st3" d="M304.7,295.5l-27.2,0.8c0.4,23.2-8.1,45.3-23.8,62.4l19.8,18.7C294.2,355,305.3,326,304.7,295.5z"/>
	<path class="st4" d="M250.3,358.8L230.5,340c-10.7,10.9-24.9,17.3-40.2,18l0.8,27.2C213.6,384.3,234.6,375,250.3,358.8z"/>
	<path class="st5" d="M187.8,355.7l-0.8-27.2c-7.4-0.1-14.4-2.7-20-7.6l0,0l0,0l-18.7,19.8C159.2,350.5,173.2,355.8,187.8,355.7z"/>
	<path class="st1" d="M167,317.5l17.5-18.6l-25.5,0.7C159.5,306.4,162.3,312.6,167,317.5z"/>
	<path class="st6" d="M23.4,358.5l25.5-9.6c-13.5-36.7-12.1-76.4,3.7-112.1l-24.8-11.3C8.9,267.9,7.4,315,23.4,358.5z"/>
	<path class="st7" d="M55.8,235.7l24.8,11.3c13.1-28.2,36.3-49.8,65.3-61.1l0,0l0,0l-9.6-25.5C100.5,174.2,71.9,200.8,55.8,235.7z"
		/>
	<path class="st8" d="M149,187.3l9.6,25.5c10-3.6,20.3-5.4,30.6-5.4c12.3,0,24.5,2.5,36.1,7.6l11.3-24.8
		C208.7,177.9,177.7,176.8,149,187.3z"/>
	<path class="st6" d="M226.5,218.2L215.3,243c13.8,6.6,24.4,18,30.1,32.2l25.5-9.6C262.6,244.6,247,227.8,226.5,218.2z"/>
	<path class="st7" d="M244,278.3l-25.5,9.6c2.3,7,2.1,14.5-0.7,21.4l24.8,11.3C248.3,307,248.8,292.1,244,278.3z"/>
	<path class="st6" d="M200.3,323.7c6.2-2.6,11.2-7.3,14.3-13.3l-23.3-10.6L200.3,323.7z"/>
	<path class="st9" d="M322,409.2l-20.9-17.5c-25.3,29.8-60.5,48.2-99.4,51.9l0,0l0,0l2.4,27.1C250.2,466.4,291.9,444.6,322,409.2z"
		/>
	<path class="st10" d="M196.7,414.4c-31,2.5-61.2-7-85.3-26.8l-17.5,20.9c29.7,24.4,67,36.2,105.2,33.1L196.7,414.4z"/>
	<path class="st11" d="M128.5,363.3c-17.6-15.2-28.6-36.1-30.9-59.2l-27.2,2.4c3,30.3,17.4,57.8,40.6,77.7L128.5,363.3z"/>
	<path class="st12" d="M126.9,299.1c-1.1-15.3,3.6-30.1,13.2-42l-20.9-17.5C105,257.1,98.1,279,99.8,301.5L126.9,299.1z"/>
	<path class="st13" d="M183.4,264.3l-2.4-27.1c-14.6,1.6-27.8,8.5-37.4,19.6l20.9,17.5C169.4,268.8,176,265.3,183.4,264.3
		L183.4,264.3L183.4,264.3z"/>
	<path class="st11" d="M188.2,292l16.4-19.6c-5.4-4.1-11.9-6.2-18.6-5.9L188.2,292z"/>
	<path class="st1" d="M183.6,121l0.8,27.2c1,0,2.1,0,3.1,0c37.9,0,73.8,14.1,101.7,40l0,0l0,0l18.7-19.8
		C274,136.8,230,120.1,183.6,121z"/>
	<path class="st2" d="M289.2,191.6l-18.7,19.8c22.4,21.6,35.3,50.5,36.5,81.6l27.2-0.8C332.9,253.9,316.9,218.2,289.2,191.6z"/>
	<path class="st3" d="M304.7,295.5l-27.2,0.8c0.4,23.2-8.1,45.3-23.8,62.4l19.8,18.7C294.2,355,305.3,326,304.7,295.5z"/>
	<path class="st4" d="M250.3,358.8L230.5,340c-10.7,10.9-24.9,17.3-40.2,18l0.8,27.2C213.6,384.3,234.6,375,250.3,358.8z"/>
	<path class="st5" d="M187.8,355.7l-0.8-27.2c-7.4-0.1-14.4-2.7-20-7.6l0,0l0,0l-18.7,19.8C159.2,350.5,173.2,355.8,187.8,355.7z"/>
	<path class="st1" d="M167,317.5l17.5-18.6l-25.5,0.7C159.5,306.4,162.3,312.6,167,317.5z"/>
	<path class="st6" d="M23.4,358.5l25.5-9.6c-13.5-36.7-12.1-76.4,3.7-112.1l-24.8-11.3C8.9,267.9,7.4,315,23.4,358.5z"/>
	<path class="st7" d="M55.8,235.7l24.8,11.3c13.1-28.2,36.3-49.8,65.3-61.1l0,0l0,0l-9.6-25.5C100.5,174.2,71.9,200.8,55.8,235.7z"
		/>
	<path class="st8" d="M149,187.3l9.6,25.5c10-3.6,20.3-5.4,30.6-5.4c12.3,0,24.5,2.5,36.1,7.6l11.3-24.8
		C208.7,177.9,177.7,176.8,149,187.3z"/>
	<path class="st6" d="M226.5,218.2L215.3,243c13.8,6.6,24.4,18,30.1,32.2l25.5-9.6C262.6,244.6,247,227.8,226.5,218.2z"/>
	<path class="st7" d="M244,278.3l-25.5,9.6c2.3,7,2.1,14.5-0.7,21.4l24.8,11.3C248.3,307,248.8,292.1,244,278.3z"/>
	<path class="st6" d="M200.3,323.7c6.2-2.6,11.2-7.3,14.3-13.3l-23.3-10.6L200.3,323.7z"/>
	<path class="st9" d="M322,409.2l-20.9-17.5c-25.3,29.8-60.5,48.2-99.4,51.9l0,0l0,0l2.4,27.1C250.2,466.4,291.9,444.6,322,409.2z"
		/>
	<path class="st10" d="M196.7,414.4c-31,2.5-61.2-7-85.3-26.8l-17.5,20.9c29.7,24.4,67,36.2,105.2,33.1L196.7,414.4z"/>
	<path class="st11" d="M128.5,363.3c-17.6-15.2-28.6-36.1-30.9-59.2l-27.2,2.4c3,30.3,17.4,57.8,40.6,77.7L128.5,363.3z"/>
	<path class="st12" d="M126.9,299.1c-1.1-15.3,3.6-30.1,13.2-42l-20.9-17.5C105,257.1,98.1,279,99.8,301.5L126.9,299.1z"/>
	<path class="st13" d="M183.4,264.3l-2.4-27.1c-14.6,1.6-27.8,8.5-37.4,19.6l20.9,17.5C169.4,268.8,176,265.3,183.4,264.3
		L183.4,264.3L183.4,264.3z"/>
	<path class="st11" d="M188.2,292l16.4-19.6c-5.4-4.1-11.9-6.2-18.6-5.9L188.2,292z"/>
</g>
</svg>
